<svg width="61" height="62" viewBox="0 0 61 62" fill="none" xmlns="http://www.w3.org/2000/svg">
<path d="M58.3678 18.8145L32.7248 0.6805C31.4378 -0.2265 29.0418 -0.2275 27.7528 0.6815L2.16276 18.7785C0.388759 19.8655 -0.373241 21.7475 0.174759 23.6905C0.742759 25.7035 2.50076 27.1095 4.45076 27.1095C5.23276 27.1095 6.00276 26.8825 6.79476 26.4155V52.5785H4.87576C3.66776 52.5785 2.68476 53.5625 2.68476 54.7715V59.7825C2.68476 60.9925 3.66776 61.9765 4.87576 61.9765H55.5998C56.8098 61.9765 57.7938 60.9925 57.7938 59.7825V54.7715C57.7938 53.5625 56.8098 52.5785 55.5998 52.5785H53.6838V26.4225C54.4388 26.8775 55.2278 27.1105 56.0278 27.1105C57.9768 27.1105 59.7338 25.7045 60.3008 23.6925C60.8488 21.7485 60.0868 19.8665 58.3678 18.8145ZM55.7938 54.7715V59.7825C55.7938 59.8875 55.7048 59.9765 55.5998 59.9765H4.87576C4.77376 59.9765 4.68476 59.8855 4.68476 59.7825V54.7715C4.68476 54.6685 4.77376 54.5785 4.87576 54.5785H55.5998C55.7048 54.5785 55.7938 54.6665 55.7938 54.7715ZM29.1448 28.8815H31.3308V32.8805L30.6258 32.5855C30.3788 32.4815 30.1008 32.4815 29.8538 32.5845L29.1448 32.8815V28.8815ZM27.5908 35.2145C27.7578 35.3255 27.9508 35.3825 28.1448 35.3825C28.2758 35.3825 28.4068 35.3575 28.5308 35.3055L30.2388 34.5905L31.9438 35.3045C32.2528 35.4355 32.6058 35.4005 32.8838 35.2155C33.1628 35.0295 33.3298 34.7175 33.3298 34.3825V28.8815H37.7458V39.7275H22.7288V28.8815H27.1448V34.3825C27.1448 34.7175 27.3118 35.0305 27.5908 35.2145ZM46.2568 52.5785H31.2388V41.7275H35.6548V47.2335C35.6548 47.5685 35.8218 47.8805 36.1008 48.0665C36.2678 48.1765 36.4598 48.2335 36.6548 48.2335C36.7858 48.2335 36.9168 48.2085 37.0408 48.1555L38.7458 47.4415L40.4538 48.1565C40.7618 48.2855 41.1148 48.2525 41.3938 48.0655C41.6718 47.8805 41.8398 47.5685 41.8398 47.2335V41.7275H46.2558L46.2568 52.5785ZM39.8408 45.7315L39.1318 45.4345C38.8848 45.3305 38.6068 45.3315 38.3598 45.4355L37.6548 45.7305V41.7275H39.8408V45.7315ZM22.8228 41.7275V45.7315L22.1138 45.4345C21.8668 45.3305 21.5888 45.3315 21.3418 45.4355L20.6378 45.7305V41.7275H22.8228ZM19.0838 48.0665C19.2508 48.1765 19.4428 48.2335 19.6378 48.2335C19.7688 48.2335 19.8998 48.2085 20.0238 48.1555L21.7288 47.4415L23.4378 48.1565C23.7468 48.2855 24.0998 48.2525 24.3778 48.0655C24.6558 47.8805 24.8238 47.5685 24.8238 47.2335V41.7275H29.2398V52.5785H14.2218V41.7275H18.6378V47.2335C18.6378 47.5685 18.8048 47.8805 19.0838 48.0665ZM48.2568 52.5785V40.8545C48.2568 40.2335 47.7518 39.7275 47.1298 39.7275H39.7458V28.0055C39.7458 27.3855 39.2418 26.8815 38.6228 26.8815H21.8558C21.2338 26.8815 20.7288 27.3855 20.7288 28.0055V39.7275H13.3448C12.7258 39.7275 12.2218 40.2335 12.2218 40.8545V52.5785H8.79476V25.0045L30.2388 9.6965L51.6828 25.0015V52.5775L48.2568 52.5785ZM58.3758 23.1485C58.1008 24.1225 57.2058 25.1085 56.0268 25.1095C55.5868 25.1095 55.1358 24.9695 54.7468 24.7345L30.8208 7.6545C30.6468 7.5305 30.4438 7.4685 30.2398 7.4685C30.0358 7.4685 29.8328 7.5305 29.6588 7.6545L5.78976 24.6955C5.34176 24.9695 4.89076 25.1095 4.45076 25.1095C3.26976 25.1095 2.37376 24.1225 2.09876 23.1475C1.95476 22.6385 1.77576 21.3605 3.26176 20.4475L28.9058 2.3145C29.5078 1.8905 30.9718 1.8915 31.5708 2.3135L57.2678 20.4835C58.6988 21.3615 58.5198 22.6405 58.3758 23.1485Z" fill="#F27964"/>
</svg>
