<svg width="27" height="24" viewBox="0 0 27 24" fill="none" xmlns="http://www.w3.org/2000/svg">
<mask id="path-1-outside-1_1_3409" maskUnits="userSpaceOnUse" x="-0.279297" y="-0.433441" width="28" height="25" fill="black">
<rect fill="white" x="-0.279297" y="-0.433441" width="28" height="25"/>
<path d="M26.5692 23.027H20.7694C23.7142 22.0182 25.6861 19.6961 25.9679 16.6311C25.9745 16.5517 25.949 16.4734 25.8946 16.415C25.8414 16.3565 25.7648 16.3235 25.6849 16.3235H24.8882C24.7773 16.0732 24.6186 15.8482 24.4111 15.6597C24.7551 15.3741 24.9615 14.9497 24.9615 14.4888C24.9615 13.7247 24.3934 13.0896 23.6522 12.9794C23.4957 12.5207 23.0275 12.2098 22.5237 12.2594C22.3395 11.9176 21.98 11.6971 21.5739 11.6971C21.2077 11.6971 20.8715 11.8801 20.674 12.1767C20.2701 12.2153 19.9317 12.4755 19.7808 12.8316C19.6199 12.7368 19.4146 12.6453 19.1794 12.6453C18.9453 12.6453 18.7311 12.7224 18.5536 12.847V12.1612H19.9827C20.5664 12.1612 21.0413 11.6893 21.0413 11.1094V10.3398C21.0413 10.1843 20.9137 10.0575 20.7572 10.0575H19.9739C19.4779 5.95915 16.198 2.83796 12.107 2.48063C12.3112 2.15868 12.4233 1.75734 12.4233 1.47619C12.4233 0.914976 12.0016 0.566559 11.3226 0.566559C10.6435 0.566559 10.2219 0.914976 10.2219 1.47619C10.2219 1.75624 10.335 2.15758 10.5381 2.48063C6.44716 2.83675 3.1672 5.95915 2.67125 10.0575L1.889 10.0564C1.73254 10.0564 1.60494 10.1832 1.60494 10.3387V11.1083C1.60494 11.6882 2.07985 12.1601 2.66349 12.1601H4.09262V13.8118C4.09262 14.5582 4.70399 15.1657 5.45519 15.1657H11.0397V16.3223H8.89041C8.81052 16.3223 8.73396 16.3554 8.6807 16.4139C8.62744 16.4723 8.60081 16.5506 8.60747 16.63C8.64076 16.9883 8.69735 17.3356 8.77613 17.673L5.45527 17.6741C4.93153 17.6741 4.71184 18.5605 4.25915 20.9045C4.1027 21.7149 3.88965 22.8152 3.75319 23.0269H1.00476C0.848305 23.0269 0.720703 23.1526 0.720703 23.3092C0.720703 23.4658 0.848305 23.5915 1.00476 23.5915H26.5695C26.726 23.5915 26.8536 23.4658 26.8536 23.3092C26.8536 23.1526 26.726 23.0269 26.5695 23.0269L26.5692 23.027ZM18.6612 13.7247C18.6612 13.4413 18.8931 13.2098 19.1793 13.2098C19.3458 13.2098 19.5289 13.3377 19.6498 13.4226C19.7785 13.5119 19.925 13.6144 20.1003 13.524C20.2035 13.4711 20.2645 13.3663 20.2645 13.2451C20.2645 12.9507 20.5286 12.7147 20.8182 12.739C20.938 12.75 21.0545 12.6805 21.1022 12.5692C21.1832 12.3817 21.3685 12.2616 21.5727 12.2616C21.8112 12.2616 22.0154 12.4226 22.0709 12.6541C22.0897 12.7335 22.1419 12.8007 22.214 12.8382C22.2861 12.8768 22.3716 12.8812 22.4481 12.8525C22.7621 12.7335 23.105 12.9551 23.1383 13.2748C23.1538 13.4182 23.2792 13.5273 23.4246 13.5273C23.9583 13.5273 24.3921 13.9584 24.3921 14.4887C24.3921 14.8779 24.158 15.2264 23.7962 15.3763C23.6975 15.4171 23.6298 15.5097 23.6231 15.6167C23.6154 15.7225 23.6675 15.8239 23.7596 15.8791C23.9605 15.9992 24.118 16.1503 24.2379 16.3234H19.8495C19.6232 15.9893 19.3114 15.7942 18.8964 15.7467C18.7677 15.3741 18.4326 15.104 18.0409 15.0422C18.0231 15.0301 18.0087 15.0146 17.9876 15.0058C17.8589 14.9518 17.7269 14.6905 17.7269 14.4887C17.7269 14.255 17.9188 14.0642 18.1541 14.0642C18.467 14.0642 18.6612 13.9342 18.6612 13.7247ZM15.511 16.0158C15.511 15.7214 15.774 15.4866 16.0647 15.5097C16.1856 15.5207 16.301 15.4513 16.3488 15.3399C16.4298 15.1536 16.6151 15.0323 16.8192 15.0323C17.0578 15.0323 17.2619 15.1933 17.3174 15.4237C17.3363 15.5031 17.3884 15.5704 17.4605 15.6079C17.5327 15.6453 17.6181 15.6509 17.6947 15.6222C18.0098 15.5031 18.3515 15.7236 18.3848 16.0434C18.4004 16.1911 18.5213 16.3091 18.6789 16.2959C18.7721 16.2959 18.8542 16.3047 18.9296 16.3212L15.2659 16.3223C15.2926 16.3168 15.3192 16.3091 15.348 16.2937C15.4501 16.2418 15.511 16.1382 15.511 16.0158ZM10.7909 1.4762C10.7909 1.39131 10.7909 1.13109 11.3235 1.13109C11.8561 1.13109 11.8561 1.39019 11.8561 1.4762C11.8561 1.8566 11.5332 2.44536 11.3235 2.44536C11.1138 2.44536 10.7909 1.8566 10.7909 1.4762ZM2.17276 11.1093V10.622H7.36127C7.51772 10.622 7.64532 10.4952 7.64532 10.3397C7.64532 10.1843 7.51772 10.0575 7.36127 10.0575L3.24364 10.0564C3.76624 6.01757 7.18601 3.00984 11.3224 3.00984C15.4599 3.00984 18.8788 6.01757 19.4011 10.0564H9.18631C9.02986 10.0564 8.90226 10.1832 8.90226 10.3386C8.90226 10.4941 9.02986 10.6209 9.18631 10.6209H20.4729V11.1082C20.4729 11.3773 20.2532 11.5956 19.9824 11.5956L2.66287 11.5967C2.39324 11.5967 2.17242 11.3784 2.17242 11.1093H2.17276ZM4.66044 13.8128V12.1612H17.9854V13.5184C17.5171 13.5989 17.1598 14.0013 17.1598 14.4887C17.1598 14.5008 17.1621 14.5129 17.1621 14.5251C17.0533 14.4887 16.939 14.4677 16.8203 14.4677C16.6339 14.4677 16.4552 14.5162 16.2988 14.6022H5.45482C5.01653 14.6022 4.66044 14.2483 4.66044 13.8128ZM11.6075 15.1668H15.3655C15.218 15.2803 15.0992 15.4303 15.026 15.6034C14.8651 15.5086 14.6598 15.4171 14.4246 15.4171C13.8854 15.4171 13.4404 15.8107 13.3561 16.3234H11.6063L11.6075 15.1668ZM15.1471 16.3234H13.9388C14.0109 16.1249 14.2006 15.9816 14.4248 15.9816C14.5912 15.9816 14.7743 16.1095 14.8963 16.1944C14.974 16.2473 15.0561 16.3046 15.1471 16.3234ZM25.3673 16.8879C24.8735 20.6221 21.7368 23.0171 17.2874 23.0171C12.838 23.0171 9.70124 20.6234 9.20755 16.8879H25.3673ZM4.81667 21.0103C4.99753 20.0753 5.2949 18.5328 5.52015 18.2384H8.92992C9.64559 20.5031 11.401 22.2033 13.8054 23.0269H4.36292C4.49163 22.6498 4.62137 22.0213 4.81667 21.0103Z"/>
</mask>
<path d="M26.5692 23.027H20.7694C23.7142 22.0182 25.6861 19.6961 25.9679 16.6311C25.9745 16.5517 25.949 16.4734 25.8946 16.415C25.8414 16.3565 25.7648 16.3235 25.6849 16.3235H24.8882C24.7773 16.0732 24.6186 15.8482 24.4111 15.6597C24.7551 15.3741 24.9615 14.9497 24.9615 14.4888C24.9615 13.7247 24.3934 13.0896 23.6522 12.9794C23.4957 12.5207 23.0275 12.2098 22.5237 12.2594C22.3395 11.9176 21.98 11.6971 21.5739 11.6971C21.2077 11.6971 20.8715 11.8801 20.674 12.1767C20.2701 12.2153 19.9317 12.4755 19.7808 12.8316C19.6199 12.7368 19.4146 12.6453 19.1794 12.6453C18.9453 12.6453 18.7311 12.7224 18.5536 12.847V12.1612H19.9827C20.5664 12.1612 21.0413 11.6893 21.0413 11.1094V10.3398C21.0413 10.1843 20.9137 10.0575 20.7572 10.0575H19.9739C19.4779 5.95915 16.198 2.83796 12.107 2.48063C12.3112 2.15868 12.4233 1.75734 12.4233 1.47619C12.4233 0.914976 12.0016 0.566559 11.3226 0.566559C10.6435 0.566559 10.2219 0.914976 10.2219 1.47619C10.2219 1.75624 10.335 2.15758 10.5381 2.48063C6.44716 2.83675 3.1672 5.95915 2.67125 10.0575L1.889 10.0564C1.73254 10.0564 1.60494 10.1832 1.60494 10.3387V11.1083C1.60494 11.6882 2.07985 12.1601 2.66349 12.1601H4.09262V13.8118C4.09262 14.5582 4.70399 15.1657 5.45519 15.1657H11.0397V16.3223H8.89041C8.81052 16.3223 8.73396 16.3554 8.6807 16.4139C8.62744 16.4723 8.60081 16.5506 8.60747 16.63C8.64076 16.9883 8.69735 17.3356 8.77613 17.673L5.45527 17.6741C4.93153 17.6741 4.71184 18.5605 4.25915 20.9045C4.1027 21.7149 3.88965 22.8152 3.75319 23.0269H1.00476C0.848305 23.0269 0.720703 23.1526 0.720703 23.3092C0.720703 23.4658 0.848305 23.5915 1.00476 23.5915H26.5695C26.726 23.5915 26.8536 23.4658 26.8536 23.3092C26.8536 23.1526 26.726 23.0269 26.5695 23.0269L26.5692 23.027ZM18.6612 13.7247C18.6612 13.4413 18.8931 13.2098 19.1793 13.2098C19.3458 13.2098 19.5289 13.3377 19.6498 13.4226C19.7785 13.5119 19.925 13.6144 20.1003 13.524C20.2035 13.4711 20.2645 13.3663 20.2645 13.2451C20.2645 12.9507 20.5286 12.7147 20.8182 12.739C20.938 12.75 21.0545 12.6805 21.1022 12.5692C21.1832 12.3817 21.3685 12.2616 21.5727 12.2616C21.8112 12.2616 22.0154 12.4226 22.0709 12.6541C22.0897 12.7335 22.1419 12.8007 22.214 12.8382C22.2861 12.8768 22.3716 12.8812 22.4481 12.8525C22.7621 12.7335 23.105 12.9551 23.1383 13.2748C23.1538 13.4182 23.2792 13.5273 23.4246 13.5273C23.9583 13.5273 24.3921 13.9584 24.3921 14.4887C24.3921 14.8779 24.158 15.2264 23.7962 15.3763C23.6975 15.4171 23.6298 15.5097 23.6231 15.6167C23.6154 15.7225 23.6675 15.8239 23.7596 15.8791C23.9605 15.9992 24.118 16.1503 24.2379 16.3234H19.8495C19.6232 15.9893 19.3114 15.7942 18.8964 15.7467C18.7677 15.3741 18.4326 15.104 18.0409 15.0422C18.0231 15.0301 18.0087 15.0146 17.9876 15.0058C17.8589 14.9518 17.7269 14.6905 17.7269 14.4887C17.7269 14.255 17.9188 14.0642 18.1541 14.0642C18.467 14.0642 18.6612 13.9342 18.6612 13.7247ZM15.511 16.0158C15.511 15.7214 15.774 15.4866 16.0647 15.5097C16.1856 15.5207 16.301 15.4513 16.3488 15.3399C16.4298 15.1536 16.6151 15.0323 16.8192 15.0323C17.0578 15.0323 17.2619 15.1933 17.3174 15.4237C17.3363 15.5031 17.3884 15.5704 17.4605 15.6079C17.5327 15.6453 17.6181 15.6509 17.6947 15.6222C18.0098 15.5031 18.3515 15.7236 18.3848 16.0434C18.4004 16.1911 18.5213 16.3091 18.6789 16.2959C18.7721 16.2959 18.8542 16.3047 18.9296 16.3212L15.2659 16.3223C15.2926 16.3168 15.3192 16.3091 15.348 16.2937C15.4501 16.2418 15.511 16.1382 15.511 16.0158ZM10.7909 1.4762C10.7909 1.39131 10.7909 1.13109 11.3235 1.13109C11.8561 1.13109 11.8561 1.39019 11.8561 1.4762C11.8561 1.8566 11.5332 2.44536 11.3235 2.44536C11.1138 2.44536 10.7909 1.8566 10.7909 1.4762ZM2.17276 11.1093V10.622H7.36127C7.51772 10.622 7.64532 10.4952 7.64532 10.3397C7.64532 10.1843 7.51772 10.0575 7.36127 10.0575L3.24364 10.0564C3.76624 6.01757 7.18601 3.00984 11.3224 3.00984C15.4599 3.00984 18.8788 6.01757 19.4011 10.0564H9.18631C9.02986 10.0564 8.90226 10.1832 8.90226 10.3386C8.90226 10.4941 9.02986 10.6209 9.18631 10.6209H20.4729V11.1082C20.4729 11.3773 20.2532 11.5956 19.9824 11.5956L2.66287 11.5967C2.39324 11.5967 2.17242 11.3784 2.17242 11.1093H2.17276ZM4.66044 13.8128V12.1612H17.9854V13.5184C17.5171 13.5989 17.1598 14.0013 17.1598 14.4887C17.1598 14.5008 17.1621 14.5129 17.1621 14.5251C17.0533 14.4887 16.939 14.4677 16.8203 14.4677C16.6339 14.4677 16.4552 14.5162 16.2988 14.6022H5.45482C5.01653 14.6022 4.66044 14.2483 4.66044 13.8128ZM11.6075 15.1668H15.3655C15.218 15.2803 15.0992 15.4303 15.026 15.6034C14.8651 15.5086 14.6598 15.4171 14.4246 15.4171C13.8854 15.4171 13.4404 15.8107 13.3561 16.3234H11.6063L11.6075 15.1668ZM15.1471 16.3234H13.9388C14.0109 16.1249 14.2006 15.9816 14.4248 15.9816C14.5912 15.9816 14.7743 16.1095 14.8963 16.1944C14.974 16.2473 15.0561 16.3046 15.1471 16.3234ZM25.3673 16.8879C24.8735 20.6221 21.7368 23.0171 17.2874 23.0171C12.838 23.0171 9.70124 20.6234 9.20755 16.8879H25.3673ZM4.81667 21.0103C4.99753 20.0753 5.2949 18.5328 5.52015 18.2384H8.92992C9.64559 20.5031 11.401 22.2033 13.8054 23.0269H4.36292C4.49163 22.6498 4.62137 22.0213 4.81667 21.0103Z" fill="#F27964"/>
<path d="M26.5692 23.027H20.7694C23.7142 22.0182 25.6861 19.6961 25.9679 16.6311C25.9745 16.5517 25.949 16.4734 25.8946 16.415C25.8414 16.3565 25.7648 16.3235 25.6849 16.3235H24.8882C24.7773 16.0732 24.6186 15.8482 24.4111 15.6597C24.7551 15.3741 24.9615 14.9497 24.9615 14.4888C24.9615 13.7247 24.3934 13.0896 23.6522 12.9794C23.4957 12.5207 23.0275 12.2098 22.5237 12.2594C22.3395 11.9176 21.98 11.6971 21.5739 11.6971C21.2077 11.6971 20.8715 11.8801 20.674 12.1767C20.2701 12.2153 19.9317 12.4755 19.7808 12.8316C19.6199 12.7368 19.4146 12.6453 19.1794 12.6453C18.9453 12.6453 18.7311 12.7224 18.5536 12.847V12.1612H19.9827C20.5664 12.1612 21.0413 11.6893 21.0413 11.1094V10.3398C21.0413 10.1843 20.9137 10.0575 20.7572 10.0575H19.9739C19.4779 5.95915 16.198 2.83796 12.107 2.48063C12.3112 2.15868 12.4233 1.75734 12.4233 1.47619C12.4233 0.914976 12.0016 0.566559 11.3226 0.566559C10.6435 0.566559 10.2219 0.914976 10.2219 1.47619C10.2219 1.75624 10.335 2.15758 10.5381 2.48063C6.44716 2.83675 3.1672 5.95915 2.67125 10.0575L1.889 10.0564C1.73254 10.0564 1.60494 10.1832 1.60494 10.3387V11.1083C1.60494 11.6882 2.07985 12.1601 2.66349 12.1601H4.09262V13.8118C4.09262 14.5582 4.70399 15.1657 5.45519 15.1657H11.0397V16.3223H8.89041C8.81052 16.3223 8.73396 16.3554 8.6807 16.4139C8.62744 16.4723 8.60081 16.5506 8.60747 16.63C8.64076 16.9883 8.69735 17.3356 8.77613 17.673L5.45527 17.6741C4.93153 17.6741 4.71184 18.5605 4.25915 20.9045C4.1027 21.7149 3.88965 22.8152 3.75319 23.0269H1.00476C0.848305 23.0269 0.720703 23.1526 0.720703 23.3092C0.720703 23.4658 0.848305 23.5915 1.00476 23.5915H26.5695C26.726 23.5915 26.8536 23.4658 26.8536 23.3092C26.8536 23.1526 26.726 23.0269 26.5695 23.0269L26.5692 23.027ZM18.6612 13.7247C18.6612 13.4413 18.8931 13.2098 19.1793 13.2098C19.3458 13.2098 19.5289 13.3377 19.6498 13.4226C19.7785 13.5119 19.925 13.6144 20.1003 13.524C20.2035 13.4711 20.2645 13.3663 20.2645 13.2451C20.2645 12.9507 20.5286 12.7147 20.8182 12.739C20.938 12.75 21.0545 12.6805 21.1022 12.5692C21.1832 12.3817 21.3685 12.2616 21.5727 12.2616C21.8112 12.2616 22.0154 12.4226 22.0709 12.6541C22.0897 12.7335 22.1419 12.8007 22.214 12.8382C22.2861 12.8768 22.3716 12.8812 22.4481 12.8525C22.7621 12.7335 23.105 12.9551 23.1383 13.2748C23.1538 13.4182 23.2792 13.5273 23.4246 13.5273C23.9583 13.5273 24.3921 13.9584 24.3921 14.4887C24.3921 14.8779 24.158 15.2264 23.7962 15.3763C23.6975 15.4171 23.6298 15.5097 23.6231 15.6167C23.6154 15.7225 23.6675 15.8239 23.7596 15.8791C23.9605 15.9992 24.118 16.1503 24.2379 16.3234H19.8495C19.6232 15.9893 19.3114 15.7942 18.8964 15.7467C18.7677 15.3741 18.4326 15.104 18.0409 15.0422C18.0231 15.0301 18.0087 15.0146 17.9876 15.0058C17.8589 14.9518 17.7269 14.6905 17.7269 14.4887C17.7269 14.255 17.9188 14.0642 18.1541 14.0642C18.467 14.0642 18.6612 13.9342 18.6612 13.7247ZM15.511 16.0158C15.511 15.7214 15.774 15.4866 16.0647 15.5097C16.1856 15.5207 16.301 15.4513 16.3488 15.3399C16.4298 15.1536 16.6151 15.0323 16.8192 15.0323C17.0578 15.0323 17.2619 15.1933 17.3174 15.4237C17.3363 15.5031 17.3884 15.5704 17.4605 15.6079C17.5327 15.6453 17.6181 15.6509 17.6947 15.6222C18.0098 15.5031 18.3515 15.7236 18.3848 16.0434C18.4004 16.1911 18.5213 16.3091 18.6789 16.2959C18.7721 16.2959 18.8542 16.3047 18.9296 16.3212L15.2659 16.3223C15.2926 16.3168 15.3192 16.3091 15.348 16.2937C15.4501 16.2418 15.511 16.1382 15.511 16.0158ZM10.7909 1.4762C10.7909 1.39131 10.7909 1.13109 11.3235 1.13109C11.8561 1.13109 11.8561 1.39019 11.8561 1.4762C11.8561 1.8566 11.5332 2.44536 11.3235 2.44536C11.1138 2.44536 10.7909 1.8566 10.7909 1.4762ZM2.17276 11.1093V10.622H7.36127C7.51772 10.622 7.64532 10.4952 7.64532 10.3397C7.64532 10.1843 7.51772 10.0575 7.36127 10.0575L3.24364 10.0564C3.76624 6.01757 7.18601 3.00984 11.3224 3.00984C15.4599 3.00984 18.8788 6.01757 19.4011 10.0564H9.18631C9.02986 10.0564 8.90226 10.1832 8.90226 10.3386C8.90226 10.4941 9.02986 10.6209 9.18631 10.6209H20.4729V11.1082C20.4729 11.3773 20.2532 11.5956 19.9824 11.5956L2.66287 11.5967C2.39324 11.5967 2.17242 11.3784 2.17242 11.1093H2.17276ZM4.66044 13.8128V12.1612H17.9854V13.5184C17.5171 13.5989 17.1598 14.0013 17.1598 14.4887C17.1598 14.5008 17.1621 14.5129 17.1621 14.5251C17.0533 14.4887 16.939 14.4677 16.8203 14.4677C16.6339 14.4677 16.4552 14.5162 16.2988 14.6022H5.45482C5.01653 14.6022 4.66044 14.2483 4.66044 13.8128ZM11.6075 15.1668H15.3655C15.218 15.2803 15.0992 15.4303 15.026 15.6034C14.8651 15.5086 14.6598 15.4171 14.4246 15.4171C13.8854 15.4171 13.4404 15.8107 13.3561 16.3234H11.6063L11.6075 15.1668ZM15.1471 16.3234H13.9388C14.0109 16.1249 14.2006 15.9816 14.4248 15.9816C14.5912 15.9816 14.7743 16.1095 14.8963 16.1944C14.974 16.2473 15.0561 16.3046 15.1471 16.3234ZM25.3673 16.8879C24.8735 20.6221 21.7368 23.0171 17.2874 23.0171C12.838 23.0171 9.70124 20.6234 9.20755 16.8879H25.3673ZM4.81667 21.0103C4.99753 20.0753 5.2949 18.5328 5.52015 18.2384H8.92992C9.64559 20.5031 11.401 22.2033 13.8054 23.0269H4.36292C4.49163 22.6498 4.62137 22.0213 4.81667 21.0103Z" stroke="#F27964" stroke-width="0.152419" mask="url(#path-1-outside-1_1_3409)"/>
<path d="M16.8198 8.29016L16.8198 8.29025C16.8778 8.39909 16.9897 8.46151 17.1054 8.46151C17.1554 8.46151 17.207 8.45032 17.2551 8.4252L17.2551 8.42517C17.4124 8.34267 17.4729 8.14879 17.391 7.99227L17.3909 7.99211C16.6288 6.55178 15.3712 5.43301 13.8493 4.84305L13.8492 4.84301C13.6834 4.77936 13.4972 4.86039 13.4318 5.02432L13.4317 5.02441C13.3662 5.18965 13.4481 5.3763 13.6143 5.44016C14.9916 5.97379 16.1307 6.98628 16.8198 8.29016Z" fill="#F27964" stroke="#F27964" stroke-width="0.0762093"/>
<path d="M20.8003 14.5737L20.8002 14.5737C20.6507 14.4788 20.605 14.2812 20.7009 14.1318C20.7954 13.9829 20.9942 13.9381 21.145 14.033L21.1452 14.0331C21.2192 14.0804 21.2875 14.1306 21.3499 14.1833C21.4362 13.9353 21.5489 13.6868 21.6898 13.4441L21.6898 13.4441C21.7791 13.2903 21.9766 13.2378 22.1302 13.3266L22.1111 13.3596M20.8003 14.5737L21.3809 14.2101C21.4671 13.9596 21.5804 13.7084 21.7227 13.4632C21.8015 13.3276 21.9757 13.2813 22.1111 13.3596M20.8003 14.5737C20.9562 14.6723 21.1337 14.8293 21.164 15.0399M20.8003 14.5737L21.164 15.0399M22.1111 13.3596L22.13 13.3265C22.2847 13.4152 22.3379 13.6117 22.2483 13.7647M22.1111 13.3596C22.2476 13.4379 22.2942 13.611 22.2154 13.7455M22.2483 13.7647C22.2483 13.7647 22.2483 13.7647 22.2483 13.7648L22.2154 13.7455M22.2483 13.7647C22.2483 13.7647 22.2483 13.7647 22.2483 13.7647L22.2154 13.7455M22.2483 13.7647C22.0994 14.0205 21.9904 14.2797 21.9149 14.536M22.2154 13.7455C22.0579 14.016 21.9445 14.2904 21.8679 14.5613C21.8835 14.5527 21.8991 14.5442 21.9149 14.536M21.9149 14.536C22.2147 14.3789 22.5503 14.294 22.9056 14.294H22.9067C23.085 14.294 23.2288 14.4365 23.2288 14.6143C23.2288 14.791 23.0839 14.9347 22.9067 14.9347C22.4402 14.9347 22.0217 15.1377 21.727 15.5069C21.643 15.6124 21.4956 15.6349 21.3755 15.5989C21.254 15.5625 21.1468 15.4619 21.1532 15.3085L21.6972 15.4831C21.999 15.105 22.4284 14.8966 22.9067 14.8966C23.0631 14.8966 23.1907 14.7698 23.1907 14.6143C23.1907 14.4577 23.0642 14.3321 22.9067 14.3321H22.9056C22.5437 14.3321 22.2029 14.4218 21.9003 14.587C21.905 14.57 21.9099 14.553 21.9149 14.536ZM21.164 15.0399C21.1588 15.1034 21.1572 15.1671 21.1556 15.2289L21.164 15.0399Z" fill="#F27964" stroke="#F27964" stroke-width="0.0762093"/>
</svg>
