<svg width="18" height="27" viewBox="0 0 18 27" fill="none" xmlns="http://www.w3.org/2000/svg">
<path d="M6.4775 16.8751C6.77293 15.3969 8.18027 13.9896 9.65944 13.6932C11.2608 13.3727 12.3531 14.4726 12.0337 16.0674C11.7383 17.5456 10.3309 18.953 8.85176 19.2494C7.26565 19.5666 6.15591 18.483 6.4775 16.8751ZM10.2025 14.4126C9.57678 14.4126 8.80063 14.7614 8.17382 15.3882C7.21888 16.3432 6.90931 17.6447 7.49577 18.2314C8.08226 18.8178 9.38492 18.5072 10.3389 17.5533C11.6296 16.2637 11.6905 14.4126 10.2025 14.4126Z" fill="#F27964"/>
<path d="M6.83701 18.5601C6.80649 18.3487 6.95366 18.1525 7.16623 18.1219C7.21856 18.1143 8.49942 17.8974 8.87988 16.3767C9.38895 14.3382 11.1604 14.0624 11.2356 14.0526C11.4471 14.022 11.6433 14.1692 11.6738 14.3818C11.7043 14.5933 11.5583 14.7884 11.3468 14.82C11.289 14.8287 10.0103 15.0467 9.63096 16.5653C9.12188 18.6038 7.35044 18.8796 7.27524 18.8894C7.06266 18.9199 6.86754 18.7705 6.83701 18.5601Z" fill="#F27964"/>
<path d="M15.7294 11.8182C15.5169 11.7964 15.361 11.6067 15.3828 11.3942L15.8046 7.1688H2.70797L3.13093 11.3942C3.15273 11.6067 2.99684 11.7975 2.78427 11.8182C2.5717 11.84 2.38093 11.6841 2.36022 11.4716L1.89474 6.82005C1.87076 6.59222 2.04953 6.39383 2.27955 6.39383H16.2329C16.463 6.39383 16.6417 6.59223 16.6188 6.82005L16.1534 11.4716C16.1326 11.6841 15.942 11.84 15.7294 11.8182Z" fill="#F27964"/>
<path d="M12.4125 26.5484H6.10078C4.82753 26.5484 3.7712 25.5924 3.64476 24.3257L3.36678 21.5481C3.34498 21.3355 3.50087 21.1448 3.71344 21.1241C3.92819 21.1034 4.11678 21.2582 4.13748 21.4707L4.41546 24.2483C4.50267 25.1171 5.2276 25.7734 6.10078 25.7734H12.4125C13.2856 25.7734 14.0106 25.1182 14.0978 24.2483L14.3758 21.4707C14.3976 21.2582 14.5861 21.1023 14.7998 21.1241C15.0124 21.1459 15.1683 21.3356 15.1465 21.5481L14.8685 24.3257C14.742 25.5924 13.6857 26.5484 12.4125 26.5484Z" fill="#F27964"/>
<path d="M17.3962 7.16836H1.11756C0.903901 7.16836 0.729492 6.99504 0.729492 6.78029V5.57681C0.729492 4.53031 1.58087 3.67892 2.62738 3.67892H15.8865C16.9319 3.68001 17.7833 4.53139 17.7833 5.5779V6.78138C17.7833 6.99504 17.6098 7.16836 17.3962 7.16836ZM1.50463 6.39331H17.0083V5.5779C17.0083 4.9587 16.5046 4.4551 15.8855 4.4551H2.62637C2.00718 4.4551 1.50357 4.95873 1.50357 5.5779L1.50463 6.39331Z" fill="#F27964"/>
<path d="M15.0698 21.8971H3.44161C3.2443 21.8971 3.0786 21.7499 3.0568 21.5537L1.89365 11.4768C1.86748 11.2468 2.04735 11.0451 2.27845 11.0451H16.2319C16.463 11.0451 16.6439 11.2468 16.6167 11.4768L15.4535 21.5537C15.4328 21.7499 15.2671 21.8971 15.0698 21.8971ZM3.78821 21.122H14.7252L15.7989 11.8201H2.71539L3.78821 21.122Z" fill="#F27964"/>
<path d="M15.8448 4.45515H2.66639C2.45273 4.45515 2.27832 4.28182 2.27832 4.06708L2.27941 0.579843C2.27941 0.353101 2.47345 0.17433 2.70128 0.193948L15.8797 1.3571C16.0792 1.37346 16.2329 1.54133 16.2329 1.74191V4.0671C16.2329 4.28186 16.0596 4.45515 15.8448 4.45515ZM3.05458 3.68009H15.4578V2.09725L3.05458 1.00277V3.68009Z" fill="#F27964"/>
</svg>
