<svg width="18" height="27" viewBox="0 0 18 27" fill="none" xmlns="http://www.w3.org/2000/svg">
<mask id="path-1-outside-1_1_3401" maskUnits="userSpaceOnUse" x="0.0537109" y="-0.0595703" width="17" height="27" fill="black">
<rect fill="white" x="0.0537109" y="-0.0595703" width="17" height="27"/>
<path fill-rule="evenodd" clip-rule="evenodd" d="M1.05371 25.3197V5.11342C1.05371 4.74955 1.34869 4.45452 1.71261 4.45452H2.15186V1.59933C2.15186 1.23541 2.44683 0.94043 2.81076 0.94043H4.5678C4.73658 0.94043 4.8905 1.00384 5.0071 1.10821C5.12365 1.00384 5.27756 0.94043 5.44635 0.94043H7.20339C7.37217 0.94043 7.52609 1.00384 7.64269 1.10821C7.75924 1.00384 7.91316 0.94043 8.08194 0.94043H9.83898C10.0078 0.94043 10.1617 1.00384 10.2783 1.10821C10.3948 1.00384 10.5487 0.94043 10.7175 0.94043H12.4746C12.6434 0.94043 12.7973 1.00384 12.9139 1.10821C13.0304 1.00384 13.1843 0.94043 13.3531 0.94043H15.1102C15.4741 0.94043 15.7691 1.23541 15.7691 1.59933V4.45452H16.2084C16.3831 4.45452 16.5507 4.52394 16.6743 4.6475C16.7978 4.77111 16.8673 4.93868 16.8673 5.11342V16.0951C16.8673 16.2163 16.7689 16.3147 16.6476 16.3147C16.5264 16.3147 16.428 16.2163 16.428 16.0951V12.1125L8.96049 11.0458L1.49296 12.1125V20.9234H16.428V17.1914C16.428 17.0702 16.5264 16.9718 16.6476 16.9718C16.7689 16.9718 16.8673 17.0702 16.8673 17.1914V25.3197C16.8673 25.4944 16.7978 25.662 16.6743 25.7855C16.5507 25.9091 16.3831 25.9786 16.2084 25.9786H1.71261C1.34869 25.9786 1.05371 25.6835 1.05371 25.3197ZM2.5911 4.60095L4.78745 7.52941V2.69747H2.5911V4.60095ZM5.2267 7.96866H7.42304V2.69747H5.2267V7.96866ZM7.86229 7.96866H10.0586V2.69747H7.86229V7.96866ZM10.4979 7.96866H12.6942V2.69747H10.4979V7.96866ZM13.1335 7.52941L15.3298 4.60095V2.69747H13.1335V7.52941ZM16.428 11.6688V5.11342C16.428 5.05517 16.4048 4.99929 16.3637 4.95813C16.3225 4.91696 16.2666 4.89382 16.2084 4.89382H15.6593L13.2213 8.14435C13.0969 8.31028 12.9016 8.40791 12.6942 8.40791H5.2267C5.01933 8.40791 4.82403 8.31028 4.69958 8.14435L2.26166 4.89382H1.71261C1.59132 4.89382 1.49296 4.99213 1.49296 5.11342V11.6688L8.92939 10.6065C8.95 10.6035 8.97093 10.6035 8.99154 10.6065L16.428 11.6688ZM2.81076 1.37968C2.68947 1.37968 2.5911 1.47799 2.5911 1.59933V2.25823H2.81076V1.37968ZM3.46965 1.37968H3.25V2.25823H3.46965V1.37968ZM4.12855 1.37968H3.9089V2.25823H4.12855V1.37968ZM4.78745 1.59933C4.78745 1.47804 4.68914 1.37968 4.5678 1.37968V2.25823H4.78745V1.59933ZM5.44635 1.37968C5.32506 1.37968 5.2267 1.47804 5.2267 1.59933V2.25823H5.44635V1.37968ZM6.10525 1.37968H5.88559V2.25823H6.10525V1.37968ZM6.76414 1.37968H6.54449V2.25823H6.76414V1.37968ZM7.42304 1.59933C7.42304 1.47804 7.32473 1.37968 7.20339 1.37968V2.25823H7.42304V1.59933ZM8.08194 1.37968C7.96065 1.37968 7.86229 1.47804 7.86229 1.59933V2.25823H8.08194V1.37968ZM8.74084 1.37968H8.52119V2.25823H8.74084V1.37968ZM9.39974 1.37968H9.18009V2.25823H9.39974V1.37968ZM10.0586 1.59933C10.0586 1.47799 9.96033 1.37968 9.83898 1.37968V2.25823H10.0586V1.59933ZM10.7175 1.37968C10.5962 1.37968 10.4979 1.47799 10.4979 1.59933V2.25823H10.7175V1.37968ZM11.3764 1.37968H11.1568V2.25823H11.3764V1.37968ZM12.0353 1.37968H11.8157V2.25823H12.0353V1.37968ZM12.6942 1.59933C12.6942 1.47804 12.5959 1.37968 12.4746 1.37968V2.25823H12.6942V1.59933ZM13.3531 1.37968C13.2318 1.37968 13.1335 1.47804 13.1335 1.59933V2.25823H13.3531V1.37968ZM14.012 1.37968H13.7924V2.25823H14.012V1.37968ZM14.6709 1.37968H14.4513V2.25823H14.6709V1.37968ZM15.3298 2.25823V1.59928C15.3298 1.47799 15.2315 1.37968 15.1102 1.37968V2.25823H15.3298ZM16.428 21.3627H1.49296V22.0252H16.428V21.3627ZM1.49296 22.4644V25.3197C1.49296 25.4409 1.59132 25.5393 1.71261 25.5393H16.2084C16.2666 25.5393 16.3225 25.5161 16.3637 25.4749C16.4048 25.4338 16.428 25.3779 16.428 25.3197V22.4644H1.49296ZM13.1335 14.1184V18.9503C13.1335 19.0716 13.0352 19.1699 12.9139 19.1699H5.0071C4.88576 19.1699 4.78745 19.0716 4.78745 18.9503V14.1184C4.78745 13.997 4.88576 13.8987 5.0071 13.8987H12.9139C13.0352 13.8987 13.1335 13.997 13.1335 14.1184ZM12.6942 14.338H5.2267V18.7307H12.6942V14.338Z"/>
</mask>
<path fill-rule="evenodd" clip-rule="evenodd" d="M1.05371 25.3197V5.11342C1.05371 4.74955 1.34869 4.45452 1.71261 4.45452H2.15186V1.59933C2.15186 1.23541 2.44683 0.94043 2.81076 0.94043H4.5678C4.73658 0.94043 4.8905 1.00384 5.0071 1.10821C5.12365 1.00384 5.27756 0.94043 5.44635 0.94043H7.20339C7.37217 0.94043 7.52609 1.00384 7.64269 1.10821C7.75924 1.00384 7.91316 0.94043 8.08194 0.94043H9.83898C10.0078 0.94043 10.1617 1.00384 10.2783 1.10821C10.3948 1.00384 10.5487 0.94043 10.7175 0.94043H12.4746C12.6434 0.94043 12.7973 1.00384 12.9139 1.10821C13.0304 1.00384 13.1843 0.94043 13.3531 0.94043H15.1102C15.4741 0.94043 15.7691 1.23541 15.7691 1.59933V4.45452H16.2084C16.3831 4.45452 16.5507 4.52394 16.6743 4.6475C16.7978 4.77111 16.8673 4.93868 16.8673 5.11342V16.0951C16.8673 16.2163 16.7689 16.3147 16.6476 16.3147C16.5264 16.3147 16.428 16.2163 16.428 16.0951V12.1125L8.96049 11.0458L1.49296 12.1125V20.9234H16.428V17.1914C16.428 17.0702 16.5264 16.9718 16.6476 16.9718C16.7689 16.9718 16.8673 17.0702 16.8673 17.1914V25.3197C16.8673 25.4944 16.7978 25.662 16.6743 25.7855C16.5507 25.9091 16.3831 25.9786 16.2084 25.9786H1.71261C1.34869 25.9786 1.05371 25.6835 1.05371 25.3197ZM2.5911 4.60095L4.78745 7.52941V2.69747H2.5911V4.60095ZM5.2267 7.96866H7.42304V2.69747H5.2267V7.96866ZM7.86229 7.96866H10.0586V2.69747H7.86229V7.96866ZM10.4979 7.96866H12.6942V2.69747H10.4979V7.96866ZM13.1335 7.52941L15.3298 4.60095V2.69747H13.1335V7.52941ZM16.428 11.6688V5.11342C16.428 5.05517 16.4048 4.99929 16.3637 4.95813C16.3225 4.91696 16.2666 4.89382 16.2084 4.89382H15.6593L13.2213 8.14435C13.0969 8.31028 12.9016 8.40791 12.6942 8.40791H5.2267C5.01933 8.40791 4.82403 8.31028 4.69958 8.14435L2.26166 4.89382H1.71261C1.59132 4.89382 1.49296 4.99213 1.49296 5.11342V11.6688L8.92939 10.6065C8.95 10.6035 8.97093 10.6035 8.99154 10.6065L16.428 11.6688ZM2.81076 1.37968C2.68947 1.37968 2.5911 1.47799 2.5911 1.59933V2.25823H2.81076V1.37968ZM3.46965 1.37968H3.25V2.25823H3.46965V1.37968ZM4.12855 1.37968H3.9089V2.25823H4.12855V1.37968ZM4.78745 1.59933C4.78745 1.47804 4.68914 1.37968 4.5678 1.37968V2.25823H4.78745V1.59933ZM5.44635 1.37968C5.32506 1.37968 5.2267 1.47804 5.2267 1.59933V2.25823H5.44635V1.37968ZM6.10525 1.37968H5.88559V2.25823H6.10525V1.37968ZM6.76414 1.37968H6.54449V2.25823H6.76414V1.37968ZM7.42304 1.59933C7.42304 1.47804 7.32473 1.37968 7.20339 1.37968V2.25823H7.42304V1.59933ZM8.08194 1.37968C7.96065 1.37968 7.86229 1.47804 7.86229 1.59933V2.25823H8.08194V1.37968ZM8.74084 1.37968H8.52119V2.25823H8.74084V1.37968ZM9.39974 1.37968H9.18009V2.25823H9.39974V1.37968ZM10.0586 1.59933C10.0586 1.47799 9.96033 1.37968 9.83898 1.37968V2.25823H10.0586V1.59933ZM10.7175 1.37968C10.5962 1.37968 10.4979 1.47799 10.4979 1.59933V2.25823H10.7175V1.37968ZM11.3764 1.37968H11.1568V2.25823H11.3764V1.37968ZM12.0353 1.37968H11.8157V2.25823H12.0353V1.37968ZM12.6942 1.59933C12.6942 1.47804 12.5959 1.37968 12.4746 1.37968V2.25823H12.6942V1.59933ZM13.3531 1.37968C13.2318 1.37968 13.1335 1.47804 13.1335 1.59933V2.25823H13.3531V1.37968ZM14.012 1.37968H13.7924V2.25823H14.012V1.37968ZM14.6709 1.37968H14.4513V2.25823H14.6709V1.37968ZM15.3298 2.25823V1.59928C15.3298 1.47799 15.2315 1.37968 15.1102 1.37968V2.25823H15.3298ZM16.428 21.3627H1.49296V22.0252H16.428V21.3627ZM1.49296 22.4644V25.3197C1.49296 25.4409 1.59132 25.5393 1.71261 25.5393H16.2084C16.2666 25.5393 16.3225 25.5161 16.3637 25.4749C16.4048 25.4338 16.428 25.3779 16.428 25.3197V22.4644H1.49296ZM13.1335 14.1184V18.9503C13.1335 19.0716 13.0352 19.1699 12.9139 19.1699H5.0071C4.88576 19.1699 4.78745 19.0716 4.78745 18.9503V14.1184C4.78745 13.997 4.88576 13.8987 5.0071 13.8987H12.9139C13.0352 13.8987 13.1335 13.997 13.1335 14.1184ZM12.6942 14.338H5.2267V18.7307H12.6942V14.338Z" fill="#F27964"/>
<path fill-rule="evenodd" clip-rule="evenodd" d="M1.05371 25.3197V5.11342C1.05371 4.74955 1.34869 4.45452 1.71261 4.45452H2.15186V1.59933C2.15186 1.23541 2.44683 0.94043 2.81076 0.94043H4.5678C4.73658 0.94043 4.8905 1.00384 5.0071 1.10821C5.12365 1.00384 5.27756 0.94043 5.44635 0.94043H7.20339C7.37217 0.94043 7.52609 1.00384 7.64269 1.10821C7.75924 1.00384 7.91316 0.94043 8.08194 0.94043H9.83898C10.0078 0.94043 10.1617 1.00384 10.2783 1.10821C10.3948 1.00384 10.5487 0.94043 10.7175 0.94043H12.4746C12.6434 0.94043 12.7973 1.00384 12.9139 1.10821C13.0304 1.00384 13.1843 0.94043 13.3531 0.94043H15.1102C15.4741 0.94043 15.7691 1.23541 15.7691 1.59933V4.45452H16.2084C16.3831 4.45452 16.5507 4.52394 16.6743 4.6475C16.7978 4.77111 16.8673 4.93868 16.8673 5.11342V16.0951C16.8673 16.2163 16.7689 16.3147 16.6476 16.3147C16.5264 16.3147 16.428 16.2163 16.428 16.0951V12.1125L8.96049 11.0458L1.49296 12.1125V20.9234H16.428V17.1914C16.428 17.0702 16.5264 16.9718 16.6476 16.9718C16.7689 16.9718 16.8673 17.0702 16.8673 17.1914V25.3197C16.8673 25.4944 16.7978 25.662 16.6743 25.7855C16.5507 25.9091 16.3831 25.9786 16.2084 25.9786H1.71261C1.34869 25.9786 1.05371 25.6835 1.05371 25.3197ZM2.5911 4.60095L4.78745 7.52941V2.69747H2.5911V4.60095ZM5.2267 7.96866H7.42304V2.69747H5.2267V7.96866ZM7.86229 7.96866H10.0586V2.69747H7.86229V7.96866ZM10.4979 7.96866H12.6942V2.69747H10.4979V7.96866ZM13.1335 7.52941L15.3298 4.60095V2.69747H13.1335V7.52941ZM16.428 11.6688V5.11342C16.428 5.05517 16.4048 4.99929 16.3637 4.95813C16.3225 4.91696 16.2666 4.89382 16.2084 4.89382H15.6593L13.2213 8.14435C13.0969 8.31028 12.9016 8.40791 12.6942 8.40791H5.2267C5.01933 8.40791 4.82403 8.31028 4.69958 8.14435L2.26166 4.89382H1.71261C1.59132 4.89382 1.49296 4.99213 1.49296 5.11342V11.6688L8.92939 10.6065C8.95 10.6035 8.97093 10.6035 8.99154 10.6065L16.428 11.6688ZM2.81076 1.37968C2.68947 1.37968 2.5911 1.47799 2.5911 1.59933V2.25823H2.81076V1.37968ZM3.46965 1.37968H3.25V2.25823H3.46965V1.37968ZM4.12855 1.37968H3.9089V2.25823H4.12855V1.37968ZM4.78745 1.59933C4.78745 1.47804 4.68914 1.37968 4.5678 1.37968V2.25823H4.78745V1.59933ZM5.44635 1.37968C5.32506 1.37968 5.2267 1.47804 5.2267 1.59933V2.25823H5.44635V1.37968ZM6.10525 1.37968H5.88559V2.25823H6.10525V1.37968ZM6.76414 1.37968H6.54449V2.25823H6.76414V1.37968ZM7.42304 1.59933C7.42304 1.47804 7.32473 1.37968 7.20339 1.37968V2.25823H7.42304V1.59933ZM8.08194 1.37968C7.96065 1.37968 7.86229 1.47804 7.86229 1.59933V2.25823H8.08194V1.37968ZM8.74084 1.37968H8.52119V2.25823H8.74084V1.37968ZM9.39974 1.37968H9.18009V2.25823H9.39974V1.37968ZM10.0586 1.59933C10.0586 1.47799 9.96033 1.37968 9.83898 1.37968V2.25823H10.0586V1.59933ZM10.7175 1.37968C10.5962 1.37968 10.4979 1.47799 10.4979 1.59933V2.25823H10.7175V1.37968ZM11.3764 1.37968H11.1568V2.25823H11.3764V1.37968ZM12.0353 1.37968H11.8157V2.25823H12.0353V1.37968ZM12.6942 1.59933C12.6942 1.47804 12.5959 1.37968 12.4746 1.37968V2.25823H12.6942V1.59933ZM13.3531 1.37968C13.2318 1.37968 13.1335 1.47804 13.1335 1.59933V2.25823H13.3531V1.37968ZM14.012 1.37968H13.7924V2.25823H14.012V1.37968ZM14.6709 1.37968H14.4513V2.25823H14.6709V1.37968ZM15.3298 2.25823V1.59928C15.3298 1.47799 15.2315 1.37968 15.1102 1.37968V2.25823H15.3298ZM16.428 21.3627H1.49296V22.0252H16.428V21.3627ZM1.49296 22.4644V25.3197C1.49296 25.4409 1.59132 25.5393 1.71261 25.5393H16.2084C16.2666 25.5393 16.3225 25.5161 16.3637 25.4749C16.4048 25.4338 16.428 25.3779 16.428 25.3197V22.4644H1.49296ZM13.1335 14.1184V18.9503C13.1335 19.0716 13.0352 19.1699 12.9139 19.1699H5.0071C4.88576 19.1699 4.78745 19.0716 4.78745 18.9503V14.1184C4.78745 13.997 4.88576 13.8987 5.0071 13.8987H12.9139C13.0352 13.8987 13.1335 13.997 13.1335 14.1184ZM12.6942 14.338H5.2267V18.7307H12.6942V14.338Z" stroke="#F27964" stroke-width="0.351412" mask="url(#path-1-outside-1_1_3401)"/>
</svg>
