<svg width="23" height="27" viewBox="0 0 23 27" fill="none" xmlns="http://www.w3.org/2000/svg">
<path fill-rule="evenodd" clip-rule="evenodd" d="M12.0615 0.5128C12.0615 0.331345 11.9164 0.18335 11.7385 0.18335C11.5606 0.18335 11.4155 0.331345 11.4155 0.5128V6.4429H7.16978C3.62821 6.4429 0.756836 9.3719 0.756836 12.9841C0.756836 13.8451 1.28421 14.5812 2.02609 14.8733C1.64254 15.235 1.40281 15.7523 1.40281 16.3263C1.40281 16.6776 1.49239 17.0083 1.65136 17.2953C1.49491 17.5463 1.40281 17.8461 1.40281 18.1781C1.40281 18.8113 1.6766 19.3775 2.11061 19.7636C1.69047 19.9811 1.40281 20.4251 1.40281 20.9386C1.40281 21.2024 1.47852 21.4495 1.61099 21.6554C1.11514 21.815 0.756846 22.2873 0.756846 22.8445C0.756846 24.8855 2.37809 26.5393 4.37917 26.5393H19.0978C21.0988 26.5393 22.7201 24.8856 22.7201 22.8445C22.7201 22.2873 22.3618 21.815 21.866 21.6554C21.9984 21.4495 22.0741 21.2024 22.0741 20.9386C22.0741 20.4251 21.7865 19.9811 21.3663 19.7636C21.8004 19.3775 22.0741 18.8113 22.0741 18.1781C22.0741 17.8461 21.982 17.5462 21.8256 17.2953C21.9846 17.0083 22.0741 16.6776 22.0741 16.3263C22.0741 15.7523 21.8344 15.235 21.4509 14.8733C22.1927 14.5812 22.7201 13.8451 22.7201 12.9841C22.7201 9.37171 19.8485 6.4429 16.3072 6.4429H12.0615V5.36319L17.6544 3.46115C17.7856 3.4161 17.8751 3.28999 17.8751 3.14843C17.8751 3.00686 17.7856 2.88075 17.6544 2.8357L12.0615 0.933659L12.0615 0.5128ZM20.1866 17.2156C20.1222 17.2336 20.0579 17.2593 19.9961 17.2915C19.528 17.5386 18.9703 17.5386 18.501 17.2928L17.4853 16.7574C17.021 16.5129 16.4684 16.5129 16.0041 16.7574L15.2787 17.1397C14.6277 17.482 13.8555 17.482 13.2045 17.1397L12.479 16.7574C12.0147 16.5129 11.4621 16.5129 10.9978 16.7574L10.2723 17.1397C9.62132 17.482 8.84918 17.482 8.19813 17.1397L7.47267 16.7574C7.00837 16.5129 6.45577 16.5129 5.99147 16.7574L4.97583 17.2928C4.5065 17.5386 3.94883 17.5386 3.48075 17.2915C3.42776 17.2632 3.37351 17.2413 3.31926 17.2233C2.70609 17.029 2.04875 17.4923 2.04875 18.1782C2.04875 18.9748 2.6821 19.6208 3.46308 19.6208H20.0137C20.7947 19.6208 21.428 18.9748 21.428 18.1782C21.428 17.5025 20.7909 17.0431 20.1866 17.2156ZM21.3435 16.7961C21.3978 16.6506 21.428 16.4923 21.428 16.3263C21.428 15.5979 20.8502 15.0085 20.1361 15.0085H3.34066C2.62656 15.0085 2.0487 15.5979 2.0487 16.3263C2.0487 16.4923 2.07898 16.6506 2.13323 16.7961C2.50923 16.5438 2.98486 16.4473 3.45042 16.576C3.56018 16.6069 3.66995 16.6494 3.77718 16.706C4.02447 16.836 4.31341 16.8527 4.57077 16.7549C4.60862 16.742 4.64394 16.7253 4.67927 16.7073L5.69491 16.1719C6.34593 15.8296 7.11807 15.8296 7.76911 16.1719L8.49458 16.5541C8.90084 16.7678 9.37398 16.7948 9.7979 16.6339C9.85847 16.6108 9.91776 16.585 9.9758 16.5541L10.7013 16.1719C11.3523 15.8296 12.1244 15.8296 12.7755 16.1719L13.5009 16.5541C13.9072 16.7678 14.3803 16.7948 14.8043 16.6339C14.8648 16.6108 14.9241 16.585 14.9822 16.5541L15.7076 16.1719C16.3586 15.8296 17.1308 15.8296 17.7818 16.1719L18.7975 16.7073C19.0801 16.8553 19.417 16.8553 19.6996 16.706C19.7702 16.6687 19.8409 16.6378 19.9128 16.612C20.4124 16.4331 20.9373 16.5232 21.3435 16.7961ZM20.7354 14.3496H2.74134C2.00199 14.3496 1.40272 13.7383 1.40272 12.9842C1.40272 9.73605 3.98537 7.1019 7.16969 7.1019H16.3067C19.4912 7.1019 22.0737 9.73621 22.0737 12.9842C22.0737 13.7384 21.4747 14.3496 20.7354 14.3496ZM16.5301 3.14833L12.0612 4.66818V1.62848L16.5301 3.14833ZM21.4279 20.9386C21.4279 21.3028 21.139 21.5975 20.7819 21.5975H17.2503L17.5998 20.2797H20.7818C21.1388 20.2797 21.4279 20.5744 21.4279 20.9386ZM16.9299 20.2797H10.2114C11.2422 21.5898 12.8168 22.9925 15.0233 23.8523C15.4876 24.0337 16.0137 23.7455 16.155 23.2101L16.9299 20.2797ZM9.39783 20.2797H2.69451C2.33745 20.2797 2.04853 20.5744 2.04853 20.9386C2.04853 21.3028 2.33746 21.5975 2.69451 21.5975H10.4953C10.0714 21.1561 9.70693 20.7096 9.39783 20.2797ZM11.1806 22.2564H1.97925C1.66131 22.2564 1.40265 22.5202 1.40265 22.8446C1.40265 24.5214 2.73498 25.8804 4.37893 25.8804H19.0975C20.7415 25.8804 22.0738 24.5214 22.0738 22.8446C22.0738 22.5203 21.8152 22.2564 21.4972 22.2564H17.0761L16.7797 23.3812C16.55 24.2473 15.658 24.8045 14.7925 24.4674C13.3353 23.8998 12.1392 23.1084 11.1802 22.2565L11.1806 22.2564Z" fill="#F27964"/>
</svg>
