<svg width="26" height="24" viewBox="0 0 26 24" fill="none" xmlns="http://www.w3.org/2000/svg">
<path d="M25.9919 0.520332C25.9908 0.491709 25.9851 0.463086 25.975 0.435607C25.9716 0.426447 25.9693 0.418433 25.9659 0.410418C25.9637 0.405839 25.9626 0.400114 25.9603 0.394389C25.9468 0.3692 25.931 0.347445 25.9118 0.327983C25.9095 0.325693 25.9061 0.323403 25.9027 0.321113C25.8813 0.300504 25.8565 0.284475 25.8305 0.27188C25.8226 0.268445 25.8147 0.263866 25.8057 0.261575C25.7741 0.250126 25.7414 0.240967 25.7064 0.240967H16.0634C15.9664 0.240967 15.875 0.2902 15.8219 0.372636L0.892466 23.4113C0.833792 23.5018 0.829277 23.6174 0.880054 23.7113C0.93083 23.8063 1.02787 23.8658 1.13394 23.8658H25.088C25.5878 23.8658 25.994 23.4537 25.994 22.9465V0.534148C25.994 0.529569 25.9919 0.524912 25.9919 0.520332ZM16.2192 0.827184H25.1692L22.5232 4.91132H13.5732L16.2192 0.827184ZM13.6465 18.6093H10.5234C10.8709 18.1445 11.1902 17.9796 11.5536 17.7941C11.9767 17.5789 12.4562 17.3339 12.9426 16.5839C13.4289 15.8328 13.4605 15.2901 13.4876 14.8104C13.5146 14.3456 13.5372 13.9437 13.9378 13.3243C14.3395 12.7048 14.6927 12.5251 15.1034 12.3156C15.5265 12.1003 16.0061 11.8553 16.4924 11.1054C16.9787 10.3543 17.0092 9.81043 17.0374 9.3307C17.0645 8.86587 17.087 8.46399 17.4887 7.84457C17.8904 7.22515 18.2447 7.04424 18.6543 6.83473C19.0775 6.61948 19.557 6.37447 20.0434 5.62339C20.0693 5.58331 20.0806 5.5398 20.0862 5.49515H22.1432L13.6465 18.6093ZM13.1929 5.49753H16.3152C15.9677 5.96351 15.6484 6.12723 15.285 6.31271C14.8619 6.52796 14.3823 6.77298 13.896 7.52406C13.4097 8.27514 13.3781 8.819 13.351 9.29872C13.3239 9.76356 13.3014 10.1654 12.8997 10.7849C12.498 11.4043 12.1448 11.584 11.7341 11.7935C11.3109 12.0088 10.8314 12.2538 10.345 13.0038C9.85872 13.7548 9.82712 14.2975 9.80006 14.7773C9.77298 15.2421 9.75041 15.644 9.34984 16.2634C8.94815 16.8817 8.59496 17.0626 8.18423 17.2721C7.76111 17.4874 7.28154 17.7324 6.79522 18.4823C6.76927 18.5224 6.75798 18.5659 6.75234 18.6105L4.69646 18.6094L13.1929 5.49753ZM8.44377 17.7954C8.86689 17.5801 9.34646 17.3351 9.83279 16.5851C10.3191 15.8341 10.3507 15.2914 10.3778 14.8116C10.4049 14.3468 10.4274 13.9449 10.828 13.3255C11.2297 12.7061 11.5829 12.5263 11.9936 12.3168C12.4167 12.1016 12.8963 11.8565 13.3826 11.1066C13.8689 10.3555 13.9005 9.81166 13.9276 9.33193C13.9547 8.8671 13.9773 8.46522 14.379 7.8458C14.7806 7.22638 15.135 7.04548 15.5446 6.83596C15.9677 6.62071 16.4473 6.3757 16.9336 5.62462C16.9595 5.58454 16.9708 5.54104 16.9765 5.49638H19.4261C19.0786 5.96236 18.7593 6.12609 18.3959 6.31157C17.9728 6.52682 17.4933 6.77183 17.0069 7.52291C16.5206 8.274 16.4901 8.81785 16.4619 9.29758C16.4349 9.76242 16.4123 10.1643 16.0106 10.7837C15.6089 11.4031 15.2557 11.5829 14.845 11.7924C14.4219 12.0077 13.9423 12.2527 13.456 13.0026C12.9696 13.7537 12.938 14.2964 12.911 14.7761C12.8839 15.241 12.8613 15.6428 12.4608 16.2623C12.0591 16.8805 11.7059 17.0614 11.2952 17.271C10.872 17.4862 10.3925 17.7312 9.90614 18.4812C9.88019 18.5212 9.8689 18.5647 9.86326 18.6094H7.41358C7.75998 18.1446 8.08044 17.9797 8.44377 17.7954ZM4.31625 19.1956H13.2663L10.6203 23.2797H1.67023L4.31625 19.1956ZM25.0882 23.2797H11.3122L25.4166 1.51314V22.9465C25.4166 23.1297 25.2699 23.2797 25.0882 23.2797Z" fill="#F27964"/>
</svg>
