<svg width="11" height="28" viewBox="0 0 11 28" fill="none" xmlns="http://www.w3.org/2000/svg">
<path d="M3.37865 6.9782C3.33796 6.9632 3.29469 6.95631 3.25133 6.95794C3.20796 6.95956 3.16534 6.96967 3.1259 6.98768C3.08645 7.00569 3.05097 7.03126 3.02146 7.06291C2.99196 7.09456 2.96901 7.13169 2.95393 7.17216C2.62933 8.04309 2.22146 9.73801 2.04781 10.6092C2.03077 10.6947 2.04858 10.7834 2.09733 10.8558C2.14607 10.9283 2.22175 10.9785 2.30773 10.9955C2.3937 11.0124 2.48292 10.9947 2.55576 10.9462C2.6286 10.8977 2.67909 10.8225 2.69613 10.7369C2.86548 9.8865 3.26146 8.23804 3.57361 7.40063C3.5887 7.36016 3.59563 7.31713 3.59399 7.274C3.59236 7.23087 3.5822 7.18848 3.5641 7.14925C3.546 7.11003 3.5203 7.07473 3.48848 7.04538C3.45666 7.01603 3.41934 6.9932 3.37865 6.9782Z" fill="#F27964"/>
<path d="M3.51083 6.65375C3.59105 6.68885 3.682 6.69081 3.76368 6.65922C3.84535 6.62762 3.91106 6.56504 3.94635 6.48526C4.01046 6.34033 4.07737 6.19495 4.14522 6.05253C4.16392 6.01353 4.1747 5.97123 4.17695 5.92808C4.1792 5.88492 4.17287 5.84175 4.15832 5.80103C4.14377 5.76031 4.12128 5.72284 4.09216 5.69077C4.06303 5.6587 4.02783 5.63266 3.98858 5.61414C3.94932 5.59562 3.90677 5.58498 3.86338 5.58283C3.81998 5.58069 3.77659 5.58707 3.73567 5.60163C3.69476 5.61618 3.65714 5.63861 3.62495 5.66765C3.59277 5.69668 3.56666 5.73174 3.54812 5.77083C3.47757 5.91872 3.40807 6.07006 3.34143 6.22064C3.30616 6.30042 3.30419 6.39086 3.33596 6.47208C3.36773 6.55331 3.43063 6.61865 3.51083 6.65375Z" fill="#F27964"/>
<path d="M2.34335 27.7062C2.62691 27.712 2.90757 27.6486 3.16082 27.5216C3.41407 27.3946 3.63221 27.2078 3.79618 26.9777C3.97538 27.2257 4.21146 27.4276 4.48482 27.5667C4.75819 27.7057 5.06095 27.778 5.36801 27.7774C5.67506 27.7768 5.97754 27.7033 6.25035 27.5632C6.52316 27.4231 6.75844 27.2202 6.93667 26.9715C7.14969 27.2728 7.4538 27.4987 7.80476 27.6162C8.15572 27.7338 8.53523 27.7369 8.88811 27.6252C9.24099 27.5135 9.54884 27.2927 9.76688 26.995C9.98492 26.6973 10.1018 26.3381 10.1005 25.9698V13.1856C10.0989 10.3406 9.39425 7.5396 8.04843 5.02917L7.65741 4.30022C7.83722 4.29694 8.00778 4.17161 8.00778 3.99249V1.61524C8.00223 1.35497 7.89545 1.10698 7.70989 0.923377C7.52433 0.739778 7.27443 0.634872 7.01272 0.630707H3.71571C3.45402 0.634886 3.20415 0.739791 3.0186 0.923376C2.83305 1.10696 2.72627 1.35493 2.72071 1.61519V3.99244C2.72071 4.1715 2.8911 4.29677 3.07081 4.30017L2.68034 5.02917C1.33442 7.53957 0.629602 10.3406 0.62793 13.1856V20.5142C0.62793 20.6013 0.662743 20.6849 0.724713 20.7466C0.786682 20.8082 0.870731 20.8428 0.958368 20.8428C1.04601 20.8428 1.13005 20.8082 1.19202 20.7466C1.25399 20.6849 1.28881 20.6013 1.28881 20.5142V18.7614H3.36782C3.83511 19.0812 4.54467 19.4324 5.40668 19.4324C6.26868 19.4324 6.97819 19.0812 7.44549 18.7614H9.43963V25.9698C9.43982 26.2451 9.3342 26.51 9.1444 26.7103C8.95461 26.9107 8.69499 27.0312 8.41871 27.0474C8.14243 27.0635 7.87039 26.974 7.65831 26.7972C7.44622 26.6204 7.31013 26.3696 7.2779 26.0962C7.28765 26.0159 7.29228 25.9351 7.29178 25.8542V25.7009C7.29178 25.6137 7.25696 25.5301 7.19499 25.4685C7.13302 25.4068 7.04898 25.3722 6.96134 25.3722C6.8737 25.3722 6.78965 25.4068 6.72768 25.4685C6.66571 25.5301 6.6309 25.6137 6.6309 25.7009V25.8542C6.6309 26.1884 6.49745 26.5088 6.2599 26.7451C6.02235 26.9813 5.70016 27.1141 5.36422 27.1141C5.02827 27.1141 4.70609 26.9813 4.46854 26.7451C4.23099 26.5088 4.09754 26.1884 4.09754 25.8542V25.7009C4.09754 25.6137 4.06272 25.5301 4.00075 25.4685C3.93878 25.4068 3.85474 25.3722 3.7671 25.3722C3.67946 25.3722 3.59541 25.4068 3.53344 25.4685C3.47147 25.5301 3.43666 25.6137 3.43666 25.7009V25.8542C3.4358 25.9353 3.44005 26.0164 3.44938 26.0969C3.41938 26.3624 3.29076 26.6072 3.08873 26.7833C2.88669 26.9594 2.62582 27.0541 2.35723 27.0489C2.06984 27.0408 1.79708 26.921 1.59737 26.7153C1.39767 26.5096 1.28691 26.2343 1.28881 25.9483V22.7052C1.28881 22.618 1.25399 22.5344 1.19202 22.4728C1.13005 22.4112 1.04601 22.3765 0.958368 22.3765C0.870731 22.3765 0.786682 22.4112 0.724713 22.4728C0.662743 22.5344 0.62793 22.618 0.62793 22.7052V25.9394C0.62793 26.8917 1.38601 27.6913 2.34335 27.7062ZM3.38159 1.61519C3.38694 1.52928 3.42401 1.44836 3.48568 1.38798C3.54734 1.32759 3.62927 1.29199 3.71571 1.28801H7.01272C7.09917 1.29199 7.18109 1.32759 7.24276 1.38798C7.30443 1.44836 7.3415 1.52928 7.34685 1.61519V3.64335H3.38159V1.61519ZM1.28881 13.1856C1.2903 10.4487 1.96818 7.75422 3.26279 5.3392L3.81997 4.30066H6.90896L7.4652 5.33915C8.75994 7.75415 9.43798 10.4487 9.43963 13.1856V13.7768H7.45617C6.8627 13.3409 6.14439 13.1058 5.40665 13.1058C4.66892 13.1058 3.9506 13.3409 3.35713 13.7768H1.28881V13.1856ZM7.34057 18.1041C7.27083 18.1041 7.20288 18.126 7.14644 18.1667C6.76197 18.4443 6.14802 18.7751 5.40668 18.7751C4.66534 18.7751 4.05133 18.4443 3.66686 18.1667C3.61042 18.126 3.54247 18.1041 3.47273 18.1041H1.28881V14.4341H3.47273C3.54978 14.4341 3.62441 14.4073 3.68372 14.3584C4.17432 13.9728 4.78135 13.7631 5.40665 13.7631C6.03195 13.7631 6.63898 13.9728 7.12959 14.3584C7.18889 14.4073 7.26352 14.4341 7.34057 14.4341H9.43963V18.1041H7.34057Z" fill="#F27964"/>
</svg>
