<svg width="90" height="33" viewBox="0 0 90 33" fill="none" xmlns="http://www.w3.org/2000/svg">
<path fill-rule="evenodd" clip-rule="evenodd" d="M25.1957 1.95565C18.6566 1.95565 9.11772 2.93612 7.35572 8.47515C5.41822 14.5572 5.25802 24.7562 10.9612 28.3772C13.4456 29.9553 15.8987 30.5647 18.1917 30.5647C24.3636 30.5647 29.4337 26.1741 31.2037 24.4241C34.192 21.4749 38.8287 14.4319 39.106 10.7401C39.2388 8.98225 38.692 7.41195 37.481 6.07205C35.0279 3.36115 30.3599 2.06426 26.821 1.97826C26.3054 1.96654 25.7585 1.95872 25.1921 1.95872L25.1957 1.95565ZM18.141 32.5217C15.2855 32.5217 12.5355 31.6896 9.91442 30.0256C2.96522 25.6115 3.51212 14.0996 5.49252 7.88055C7.67612 1.00945 18.3245 -0.181945 26.8715 0.0211553C30.5395 0.110998 35.8988 1.40395 38.9305 4.75945C40.5125 6.50945 41.2313 8.57195 41.0516 10.8845C40.6962 15.5407 35.3446 23.0755 32.5711 25.8105C31.4578 26.9082 28.4344 29.6386 24.4031 31.2441C22.2703 32.0956 20.1765 32.5214 18.1375 32.5175L18.141 32.5217Z" fill="#F27964"/>
<path fill-rule="evenodd" clip-rule="evenodd" d="M64.2657 1.95564C63.6993 1.95564 63.1524 1.96345 62.6329 1.97517C59.0938 2.06111 54.4259 3.36187 51.9729 6.06897C50.762 7.40877 50.2151 8.97918 50.3479 10.737C50.6291 14.4284 55.262 21.471 58.2502 24.421C60.6799 26.8194 69.3242 34.1944 78.4922 28.3741C84.1953 24.753 84.0352 14.5541 82.0977 8.47208C80.336 2.93688 70.7967 1.95648 64.2577 1.95258L64.2657 1.95564ZM71.3165 32.5216C69.2774 32.5216 67.1876 32.0959 65.0509 31.2482C61.0197 29.6427 57.9962 26.9123 56.8829 25.8146C54.1134 23.0802 48.7579 15.5446 48.4024 10.8886C48.2266 8.57614 48.9375 6.51364 50.5235 4.75974C53.5587 1.40424 58.9141 0.111342 62.5825 0.0214424C71.1294 -0.185588 81.7735 1.00972 83.9615 7.88084C85.942 14.0996 86.4888 25.6108 79.5396 30.0258C76.9185 31.6899 74.1685 32.5219 71.313 32.5219L71.3165 32.5216Z" fill="#F27964"/>
<path fill-rule="evenodd" clip-rule="evenodd" d="M61.7576 2.01464H27.7026C27.1636 2.01464 26.7261 1.57714 26.7261 1.03808C26.7261 0.499022 27.1636 0.0615234 27.7026 0.0615234H61.7576C62.2967 0.0615234 62.7342 0.499022 62.7342 1.03808C62.7342 1.57714 62.2967 2.01464 61.7576 2.01464Z" fill="#F27964"/>
<path fill-rule="evenodd" clip-rule="evenodd" d="M5.42966 13.6906H0.97656C0.4375 13.6906 0 13.2531 0 12.7141C0 12.175 0.4375 11.7375 0.97656 11.7375H5.42966C5.96872 11.7375 6.40622 12.175 6.40622 12.7141C6.40622 13.2531 5.96872 13.6906 5.42966 13.6906Z" fill="#F27964"/>
<path fill-rule="evenodd" clip-rule="evenodd" d="M88.4846 13.6906H84.0315C83.4924 13.6906 83.0549 13.2531 83.0549 12.7141C83.0549 12.175 83.4924 11.7375 84.0315 11.7375H88.4846C89.0236 11.7375 89.4612 12.175 89.4612 12.7141C89.4612 13.2531 89.0236 13.6906 88.4846 13.6906Z" fill="#F27964"/>
<path fill-rule="evenodd" clip-rule="evenodd" d="M49.3787 11.7877C49.1326 11.7877 48.8826 11.6939 48.6951 11.5064C45.992 8.8462 43.4724 8.8462 40.7693 11.5064C40.3865 11.8853 39.7654 11.8814 39.3865 11.4947C39.0076 11.1119 39.0154 10.4908 39.3982 10.1119C42.8865 6.67828 46.574 6.67828 50.0622 10.1119C50.445 10.4908 50.449 11.108 50.074 11.4947C49.8825 11.69 49.6287 11.7877 49.3787 11.7877Z" fill="#F27964"/>
<path fill-rule="evenodd" clip-rule="evenodd" d="M15.5505 18.6826C15.3005 18.6826 15.0505 18.5889 14.8591 18.3975C14.4763 18.0147 14.4763 17.3975 14.8591 17.0147L23.8357 8.03808C24.2185 7.65527 24.8357 7.65527 25.2185 8.03808C25.6013 8.42089 25.6013 9.03809 25.2185 9.42089L16.2419 18.3975C16.0505 18.5889 15.8005 18.6826 15.5505 18.6826Z" fill="#F27964"/>
<path fill-rule="evenodd" clip-rule="evenodd" d="M20.7078 20.5537C20.4578 20.5537 20.2078 20.4599 20.0164 20.2685C19.6375 19.8857 19.6375 19.2685 20.0164 18.8857L25.7156 13.1865C26.0945 12.8037 26.7156 12.8037 27.0984 13.1865C27.4773 13.5693 27.4773 14.1865 27.0984 14.5693L21.3992 20.2646C21.2117 20.456 20.9578 20.5498 20.7078 20.5498L20.7078 20.5537Z" fill="#F27964"/>
<path fill-rule="evenodd" clip-rule="evenodd" d="M63.0586 18.6826C62.8086 18.6826 62.5586 18.5889 62.3672 18.3975C61.9883 18.0147 61.9883 17.3975 62.3672 17.0147L71.3438 8.03808C71.7227 7.65527 72.3438 7.65527 72.7266 8.03808C73.1055 8.42089 73.1055 9.03809 72.7266 9.42089L63.75 18.3975C63.5586 18.5889 63.3086 18.6826 63.0586 18.6826Z" fill="#F27964"/>
<path fill-rule="evenodd" clip-rule="evenodd" d="M68.2107 20.5537C67.9607 20.5537 67.7107 20.4599 67.5193 20.2685C67.1404 19.8857 67.1404 19.2685 67.5193 18.8857L73.2146 13.1865C73.5974 12.8037 74.2146 12.8037 74.5974 13.1865C74.9802 13.5693 74.9802 14.1865 74.5974 14.5693L68.9021 20.2646C68.7107 20.456 68.4607 20.5498 68.2107 20.5498L68.2107 20.5537Z" fill="#F27964"/>
</svg>
