<svg width="20" height="26" viewBox="0 0 20 26" fill="none" xmlns="http://www.w3.org/2000/svg">
<path d="M18.5743 4.30168V1.3768C18.5743 1.12028 18.3695 0.940918 18.1397 0.940918H1.31085C1.05509 0.940918 0.876271 1.14634 0.876271 1.3768V4.30065C-0.197689 10.2268 -0.197689 16.2551 0.876271 22.18V25.1039C0.876271 25.3604 1.08107 25.5398 1.31085 25.5398H18.1397C18.3954 25.5398 18.5743 25.3344 18.5743 25.1039V22.206C19.6732 16.2549 19.6732 10.2525 18.5743 4.30142V4.30168ZM1.74542 22.13V22.0789C1.13203 18.718 0.876271 15.3072 0.952179 11.9201L12.5381 4.7885H16.1186C16.3744 4.7885 16.5532 4.58308 16.5532 4.35262C16.5532 4.12115 16.3744 3.91673 16.1186 3.91673H3.33094C3.07519 3.91673 2.89637 4.12215 2.89637 4.35262C2.89637 4.58309 3.0752 4.7885 3.33094 4.7885H10.8496L1.00307 10.843C1.10498 8.68857 1.36072 6.55928 1.74435 4.42988V4.40383V4.37778V4.35172L1.74535 1.83859H17.6791V4.35272V4.37878V4.40483V4.43088V4.45693C18.2925 7.8179 18.5482 11.2286 18.4723 14.6158L16.8858 15.5627C16.2974 13.9464 14.7629 12.792 12.9726 12.792C10.6708 12.792 8.8296 14.6648 8.8296 16.9474C8.8296 18.0246 9.23921 19.0507 9.9545 19.7953L6.91155 21.7192H3.331C3.07524 21.7192 2.89642 21.9247 2.89642 22.1551C2.89642 22.3856 3.10122 22.591 3.331 22.591H16.1187C16.3744 22.591 16.5533 22.3856 16.5533 22.1551C16.5533 21.9247 16.3744 21.7192 16.1187 21.7192H8.60003L10.672 20.4366C11.3624 20.8986 12.1556 21.129 12.9738 21.129C15.2756 21.129 17.1168 19.2562 17.1168 16.9736C17.1168 16.8193 17.1168 16.6399 17.0908 16.4866L18.4465 15.666C18.3446 17.8203 18.0889 19.9496 17.7052 22.079V22.1051V22.1311V22.1572V22.1832V24.6974L1.74569 24.6954V22.1301L1.74542 22.13ZM10.9776 19.5648C10.1844 18.9495 9.72484 17.9996 9.72484 16.9734C9.72484 15.1777 11.1824 13.6896 12.9987 13.6896C14.815 13.6896 16.2726 15.1516 16.2726 16.9734C16.2726 18.7691 14.815 20.2572 12.9987 20.2572C12.2315 20.2572 11.5411 20.0007 10.9776 19.5648Z" fill="#F27964"/>
</svg>
